<svg version="1.1" viewBox="0.0 0.0 600.0 371.0" fill="none" stroke="none" stroke-linecap="square" stroke-miterlimit="10" width="600" height="371" xmlns:xlink="http://www.w3.org/1999/xlink" xmlns="http://www.w3.org/2000/svg"><path fill="#ffffff" d="M0 0L600.0 0L600.0 371.0L0 371.0L0 0Z" fill-rule="nonzero"/><path stroke="#333333" stroke-width="1.0" stroke-linecap="butt" d="M45.5 332.5L581.5 332.5" fill-rule="nonzero"/><path stroke="#cccccc" stroke-width="1.0" stroke-linecap="butt" d="M45.5 276.5L581.5 276.5" fill-rule="nonzero"/><path stroke="#cccccc" stroke-width="1.0" stroke-linecap="butt" d="M45.5 220.5L581.5 220.5" fill-rule="nonzero"/><path stroke="#cccccc" stroke-width="1.0" stroke-linecap="butt" d="M45.5 164.5L581.5 164.5" fill-rule="nonzero"/><path stroke="#cccccc" stroke-width="1.0" stroke-linecap="butt" d="M45.5 108.5L581.5 108.5" fill-rule="nonzero"/><path stroke="#cccccc" stroke-width="1.0" stroke-linecap="butt" d="M45.5 51.5L581.5 51.5" fill-rule="nonzero"/><clipPath id="id_0"><path d="M45.55 51.916668L581.45 51.916668L581.45 332.45L45.55 332.45L45.55 51.916668Z" clip-rule="nonzero"/></clipPath><path stroke="#000000" stroke-width="2.0" stroke-linecap="butt" stroke-opacity="0.0" clip-path="url(#id_0)" d="M198.0 332.0L126.0 332.0L126.0 278.0C126.0 276.89542 126.89543 276.0 128.0 276.0L196.0 276.0C197.10457 276.0 198.0 276.89542 198.0 278.0Z" fill-rule="nonzero"/><path fill="#5891ad" clip-path="url(#id_0)" d="M198.0 332.0L126.0 332.0L126.0 278.0C126.0 276.89542 126.89543 276.0 128.0 276.0L196.0 276.0C197.10457 276.0 198.0 276.89542 198.0 278.0Z" fill-rule="nonzero"/><path stroke="#000000" stroke-width="2.0" stroke-linecap="butt" stroke-opacity="0.0" clip-path="url(#id_0)" d="M427.0 332.0L355.0 332.0L355.0 204.0C355.0 202.89543 355.89542 202.0 357.0 202.0L425.0 202.0C426.10458 202.0 427.0 202.89543 427.0 204.0Z" fill-rule="nonzero"/><path fill="#5891ad" clip-path="url(#id_0)" d="M427.0 332.0L355.0 332.0L355.0 204.0C355.0 202.89543 355.89542 202.0 357.0 202.0L425.0 202.0C426.10458 202.0 427.0 202.89543 427.0 204.0Z" fill-rule="nonzero"/><path stroke="#000000" stroke-width="2.0" stroke-linecap="butt" stroke-opacity="0.0" clip-path="url(#id_0)" d="M272.0 332.0L200.0 332.0L200.0 224.0C200.0 222.89543 200.89543 222.0 202.0 222.0L270.0 222.0C271.10458 222.0 272.0 222.89543 272.0 224.0Z" fill-rule="nonzero"/><path fill="#004561" clip-path="url(#id_0)" d="M272.0 332.0L200.0 332.0L200.0 224.0C200.0 222.89543 200.89543 222.0 202.0 222.0L270.0 222.0C271.10458 222.0 272.0 222.89543 272.0 224.0Z" fill-rule="nonzero"/><path stroke="#000000" stroke-width="2.0" stroke-linecap="butt" stroke-opacity="0.0" clip-path="url(#id_0)" d="M501.0 332.0L429.0 332.0L429.0 103.0C429.0 101.89543 429.89542 101.0 431.0 101.0L499.0 101.0C500.10458 101.0 501.0 101.89543 501.0 103.0Z" fill-rule="nonzero"/><path fill="#004561" clip-path="url(#id_0)" d="M501.0 332.0L429.0 332.0L429.0 103.0C429.0 101.89543 429.89542 101.0 431.0 101.0L499.0 101.0C500.10458 101.0 501.0 101.89543 501.0 103.0Z" fill-rule="nonzero"/><path fill="#000000" d="M33.05 332.21564Q33.05 330.6844 33.3625 329.7625Q33.675 328.825 34.284374 328.325Q34.909374 327.825 35.846874 327.825Q36.534374 327.825 37.05 328.10626Q37.58125 328.3875 37.925 328.91876Q38.26875 329.4344 38.45625 330.1844Q38.64375 330.9344 38.64375 332.21564Q38.64375 333.73126 38.33125 334.65314Q38.034374 335.575 37.409374 336.09064Q36.8 336.59064 35.846874 336.59064Q34.6125 336.59064 33.89375 335.7Q33.05 334.6375 33.05 332.21564ZM34.128124 332.21564Q34.128124 334.325 34.628124 335.02814Q35.128124 335.73126 35.846874 335.73126Q36.58125 335.73126 37.065624 335.02814Q37.565624 334.325 37.565624 332.21564Q37.565624 330.09064 37.065624 329.40314Q36.58125 328.7 35.83125 328.7Q35.1125 328.7 34.675 329.3094Q34.128124 330.09064 34.128124 332.21564Z" fill-rule="nonzero"/><path fill="#000000" d="M31.596874 279.3277L31.596874 280.34332L25.909374 280.34332Q25.909374 279.96832 26.034374 279.60895Q26.253124 279.03082 26.721874 278.46832Q27.20625 277.90582 28.1125 277.17145Q29.51875 276.0152 30.003124 275.34332Q30.503124 274.67145 30.503124 274.0777Q30.503124 273.4527 30.05 273.03082Q29.596874 272.59332 28.878124 272.59332Q28.1125 272.59332 27.659374 273.04645Q27.20625 273.49957 27.190624 274.31207L26.1125 274.2027Q26.221874 272.98395 26.940624 272.35895Q27.675 271.71832 28.909374 271.71832Q30.14375 271.71832 30.8625 272.40582Q31.58125 273.09332 31.58125 274.10895Q31.58125 274.62457 31.3625 275.12457Q31.159374 275.60895 30.659374 276.17145Q30.175 276.71832 29.05 277.67145Q28.096874 278.46832 27.815624 278.7652Q27.55 279.04645 27.378124 279.3277L31.596874 279.3277ZM33.05 278.09332L34.159374 277.99957Q34.284374 278.81207 34.721874 279.21832Q35.175 279.62457 35.815624 279.62457Q36.565624 279.62457 37.096874 279.04645Q37.628124 278.46832 37.628124 277.53082Q37.628124 276.62457 37.1125 276.10895Q36.6125 275.5777 35.784374 275.5777Q35.284374 275.5777 34.8625 275.81207Q34.45625 276.04645 34.221874 276.40582L33.2375 276.28082L34.065624 271.87457L38.346874 271.87457L38.346874 272.87457L34.909374 272.87457L34.45625 275.18707Q35.221874 274.6402 36.065624 274.6402Q37.190624 274.6402 37.95625 275.42145Q38.7375 276.2027 38.7375 277.43707Q38.7375 278.59332 38.065624 279.4527Q37.2375 280.48395 35.815624 280.48395Q34.64375 280.48395 33.89375 279.8277Q33.159374 279.17145 33.05 278.09332Z" fill-rule="nonzero"/><path fill="#000000" d="M26.05 221.98666L27.159374 221.89291Q27.284374 222.70541 27.721874 223.11166Q28.175 223.51791 28.815624 223.51791Q29.565624 223.51791 30.096874 222.93979Q30.628124 222.36166 30.628124 221.42416Q30.628124 220.51791 30.1125 220.00229Q29.6125 219.47104 28.784374 219.47104Q28.284374 219.47104 27.8625 219.70541Q27.45625 219.93979 27.221874 220.29916L26.2375 220.17416L27.065624 215.76791L31.346874 215.76791L31.346874 216.76791L27.909374 216.76791L27.45625 219.08041Q28.221874 218.53354 29.065624 218.53354Q30.190624 218.53354 30.95625 219.31479Q31.7375 220.09604 31.7375 221.33041Q31.7375 222.48666 31.065624 223.34604Q30.2375 224.37729 28.815624 224.37729Q27.64375 224.37729 26.89375 223.72104Q26.159374 223.06479 26.05 221.98666ZM33.05 220.00229Q33.05 218.47104 33.3625 217.54916Q33.675 216.61166 34.284374 216.11166Q34.909374 215.61166 35.846874 215.61166Q36.534374 215.61166 37.05 215.89291Q37.58125 216.17416 37.925 216.70541Q38.26875 217.22104 38.45625 217.97104Q38.64375 218.72104 38.64375 220.00229Q38.64375 221.51791 38.33125 222.43979Q38.034374 223.36166 37.409374 223.87729Q36.8 224.37729 35.846874 224.37729Q34.6125 224.37729 33.89375 223.48666Q33.05 222.42416 33.05 220.00229ZM34.128124 220.00229Q34.128124 222.11166 34.628124 222.81479Q35.128124 223.51791 35.846874 223.51791Q36.58125 223.51791 37.065624 222.81479Q37.565624 222.11166 37.565624 220.00229Q37.565624 217.87729 37.065624 217.18979Q36.58125 216.48666 35.83125 216.48666Q35.1125 216.48666 34.675 217.09604Q34.128124 217.87729 34.128124 220.00229Z" fill-rule="nonzero"/><path fill="#000000" d="M26.1125 160.66125L26.1125 159.64563L31.675 159.64563L31.675 160.47375Q30.8625 161.34875 30.05 162.80188Q29.253124 164.23938 28.815624 165.77063Q28.4875 166.84875 28.409374 168.13L27.315624 168.13Q27.33125 167.11438 27.70625 165.67688Q28.096874 164.23938 28.8 162.91125Q29.51875 161.58313 30.33125 160.66125L26.1125 160.66125ZM33.05 165.88L34.159374 165.78625Q34.284374 166.59875 34.721874 167.005Q35.175 167.41125 35.815624 167.41125Q36.565624 167.41125 37.096874 166.83313Q37.628124 166.255 37.628124 165.3175Q37.628124 164.41125 37.1125 163.89563Q36.6125 163.36438 35.784374 163.36438Q35.284374 163.36438 34.8625 163.59875Q34.45625 163.83313 34.221874 164.1925L33.2375 164.0675L34.065624 159.66125L38.346874 159.66125L38.346874 160.66125L34.909374 160.66125L34.45625 162.97375Q35.221874 162.42688 36.065624 162.42688Q37.190624 162.42688 37.95625 163.20813Q38.7375 163.98938 38.7375 165.22375Q38.7375 166.38 38.065624 167.23938Q37.2375 168.27063 35.815624 168.27063Q34.64375 168.27063 33.89375 167.61438Q33.159374 166.95813 33.05 165.88Z" fill-rule="nonzero"/><path fill="#000000" d="M23.01875 112.02333L21.971874 112.02333L21.971874 105.30458Q21.58125 105.663956 20.95625 106.038956Q20.346874 106.39833 19.8625 106.570206L19.8625 105.55458Q20.7375 105.132706 21.39375 104.55458Q22.065624 103.96083 22.346874 103.39833L23.01875 103.39833L23.01875 112.02333ZM26.05 107.788956Q26.05 106.257706 26.3625 105.33583Q26.675 104.39833 27.284374 103.89833Q27.909374 103.39833 28.846874 103.39833Q29.534374 103.39833 30.05 103.67958Q30.58125 103.96083 30.925 104.49208Q31.26875 105.007706 31.45625 105.757706Q31.64375 106.507706 31.64375 107.788956Q31.64375 109.30458 31.33125 110.226456Q31.034374 111.14833 30.409374 111.663956Q29.8 112.163956 28.846874 112.163956Q27.6125 112.163956 26.89375 111.27333Q26.05 110.21083 26.05 107.788956ZM27.128124 107.788956Q27.128124 109.89833 27.628124 110.601456Q28.128124 111.30458 28.846874 111.30458Q29.58125 111.30458 30.065624 110.601456Q30.565624 109.89833 30.565624 107.788956Q30.565624 105.663956 30.065624 104.976456Q29.58125 104.27333 28.83125 104.27333Q28.1125 104.27333 27.675 104.882706Q27.128124 105.663956 27.128124 107.788956ZM33.05 107.788956Q33.05 106.257706 33.3625 105.33583Q33.675 104.39833 34.284374 103.89833Q34.909374 103.39833 35.846874 103.39833Q36.534374 103.39833 37.05 103.67958Q37.58125 103.96083 37.925 104.49208Q38.26875 105.007706 38.45625 105.757706Q38.64375 106.507706 38.64375 107.788956Q38.64375 109.30458 38.33125 110.226456Q38.034374 111.14833 37.409374 111.663956Q36.8 112.163956 35.846874 112.163956Q34.6125 112.163956 33.89375 111.27333Q33.05 110.21083 33.05 107.788956ZM34.128124 107.788956Q34.128124 109.89833 34.628124 110.601456Q35.128124 111.30458 35.846874 111.30458Q36.58125 111.30458 37.065624 110.601456Q37.565624 109.89833 37.565624 107.788956Q37.565624 105.663956 37.065624 104.976456Q36.58125 104.27333 35.83125 104.27333Q35.1125 104.27333 34.675 104.882706Q34.128124 105.663956 34.128124 107.788956Z" fill-rule="nonzero"/><path fill="#000000" d="M23.01875 55.916668L21.971874 55.916668L21.971874 49.197918Q21.58125 49.557293 20.95625 49.932293Q20.346874 50.291668 19.8625 50.463543L19.8625 49.447918Q20.7375 49.026043 21.39375 48.447918Q22.065624 47.854168 22.346874 47.291668L23.01875 47.291668L23.01875 55.916668ZM31.596874 54.901043L31.596874 55.916668L25.909374 55.916668Q25.909374 55.541668 26.034374 55.182293Q26.253124 54.604168 26.721874 54.041668Q27.20625 53.479168 28.1125 52.744793Q29.51875 51.588543 30.003124 50.916668Q30.503124 50.244793 30.503124 49.651043Q30.503124 49.026043 30.05 48.604168Q29.596874 48.166668 28.878124 48.166668Q28.1125 48.166668 27.659374 48.619793Q27.20625 49.072918 27.190624 49.885418L26.1125 49.776043Q26.221874 48.557293 26.940624 47.932293Q27.675 47.291668 28.909374 47.291668Q30.14375 47.291668 30.8625 47.979168Q31.58125 48.666668 31.58125 49.682293Q31.58125 50.197918 31.3625 50.697918Q31.159374 51.182293 30.659374 51.744793Q30.175 52.291668 29.05 53.244793Q28.096874 54.041668 27.815624 54.338543Q27.55 54.619793 27.378124 54.901043L31.596874 54.901043ZM33.05 53.666668L34.159374 53.572918Q34.284374 54.385418 34.721874 54.791668Q35.175 55.197918 35.815624 55.197918Q36.565624 55.197918 37.096874 54.619793Q37.628124 54.041668 37.628124 53.104168Q37.628124 52.197918 37.1125 51.682293Q36.6125 51.151043 35.784374 51.151043Q35.284374 51.151043 34.8625 51.385418Q34.45625 51.619793 34.221874 51.979168L33.2375 51.854168L34.065624 47.447918L38.346874 47.447918L38.346874 48.447918L34.909374 48.447918L34.45625 50.760418Q35.221874 50.213543 36.065624 50.213543Q37.190624 50.213543 37.95625 50.994793Q38.7375 51.776043 38.7375 53.010418Q38.7375 54.166668 38.065624 55.026043Q37.2375 56.057293 35.815624 56.057293Q34.64375 56.057293 33.89375 55.401043Q33.159374 54.744793 33.05 53.666668Z" fill-rule="nonzero"/><path fill="#000000" d="M176.35373 349.45L176.35373 340.85626L179.5881 340.85626Q180.57248 340.85626 181.16623 341.1219Q181.75998 341.3875 182.0881 341.9344Q182.43185 342.46564 182.43185 343.0594Q182.43185 343.60626 182.13498 344.09064Q181.8381 344.575 181.22873 344.8719Q182.00998 345.10626 182.41623 345.66876Q182.8381 346.21564 182.8381 346.96564Q182.8381 347.5594 182.5881 348.09064Q182.3381 348.60626 181.9631 348.8875Q181.5881 349.16876 181.00998 349.3094Q180.44748 349.45 179.63498 349.45L176.35373 349.45ZM177.49435 344.46564L179.35373 344.46564Q180.10373 344.46564 180.43185 344.3719Q180.86935 344.2469 181.0881 343.95Q181.30685 343.6375 181.30685 343.1844Q181.30685 342.7625 181.10373 342.4344Q180.9006 342.10626 180.50998 341.9969Q180.13498 341.8719 179.2131 341.8719L177.49435 341.8719L177.49435 344.46564ZM177.49435 348.4344L179.63498 348.4344Q180.18185 348.4344 180.4006 348.3875Q180.80685 348.325 181.05685 348.16876Q181.32248 347.9969 181.49435 347.6844Q181.66623 347.3719 181.66623 346.96564Q181.66623 346.48126 181.41623 346.1219Q181.18185 345.7625 180.74435 345.6219Q180.30685 345.48126 179.47873 345.48126L177.49435 345.48126L177.49435 348.4344ZM188.3381 348.6844Q187.74435 349.1844 187.19748 349.3875Q186.66623 349.59064 186.04123 349.59064Q185.00998 349.59064 184.4631 349.09064Q183.91623 348.59064 183.91623 347.8094Q183.91623 347.35626 184.11935 346.98126Q184.32248 346.59064 184.66623 346.3719Q185.00998 346.1375 185.43185 346.02814Q185.72873 345.9344 186.36935 345.85626Q187.63498 345.71564 188.24435 345.4969Q188.24435 345.27814 188.24435 345.23126Q188.24435 344.575 187.94748 344.3094Q187.54123 343.96564 186.74435 343.96564Q186.00998 343.96564 185.6506 344.23126Q185.29123 344.48126 185.11935 345.1375L184.0881 344.9969Q184.22873 344.34064 184.55685 343.9344Q184.88498 343.52814 185.49435 343.3094Q186.10373 343.09064 186.9006 343.09064Q187.69748 343.09064 188.19748 343.27814Q188.69748 343.46564 188.93185 343.7469Q189.16623 344.02814 189.25998 344.46564Q189.30685 344.73126 189.30685 345.4344L189.30685 346.84064Q189.30685 348.3094 189.36935 348.7Q189.44748 349.09064 189.6506 349.45L188.54123 349.45Q188.38498 349.1219 188.3381 348.6844ZM188.24435 346.325Q187.66623 346.5594 186.5256 346.73126Q185.86935 346.825 185.60373 346.95Q185.3381 347.0594 185.18185 347.27814Q185.04123 347.4969 185.04123 347.77814Q185.04123 348.2 185.35373 348.48126Q185.68185 348.7625 186.29123 348.7625Q186.9006 348.7625 187.36935 348.4969Q187.85373 348.23126 188.07248 347.7625Q188.24435 347.40314 188.24435 346.71564L188.24435 346.325ZM195.3381 347.16876L196.36935 347.3094Q196.19748 348.3719 195.49435 348.98126Q194.79123 349.59064 193.7756 349.59064Q192.49435 349.59064 191.7131 348.7625Q190.94748 347.91876 190.94748 346.35626Q190.94748 345.35626 191.2756 344.60626Q191.61935 343.84064 192.29123 343.46564Q192.97873 343.09064 193.79123 343.09064Q194.79123 343.09064 195.43185 343.60626Q196.0881 344.10626 196.2756 345.0594L195.24435 345.21564Q195.10373 344.59064 194.72873 344.27814Q194.35373 343.95 193.82248 343.95Q193.0256 343.95 192.5256 344.52814Q192.0256 345.09064 192.0256 346.325Q192.0256 347.59064 192.50998 348.15314Q192.99435 348.71564 193.75998 348.71564Q194.38498 348.71564 194.79123 348.34064Q195.2131 347.96564 195.3381 347.16876ZM197.2756 349.45L197.2756 340.85626L198.3381 340.85626L198.3381 345.7625L200.82248 343.23126L202.19748 343.23126L199.80685 345.52814L202.43185 349.45L201.13498 349.45L199.07248 346.2625L198.3381 346.98126L198.3381 349.45L197.2756 349.45ZM207.5256 347.45L208.61935 347.575Q208.36935 348.52814 207.66623 349.0594Q206.9631 349.59064 205.88498 349.59064Q204.5256 349.59064 203.7131 348.7469Q202.91623 347.90314 202.91623 346.3875Q202.91623 344.825 203.72873 343.96564Q204.54123 343.09064 205.82248 343.09064Q207.07248 343.09064 207.85373 343.9344Q208.6506 344.77814 208.6506 346.325Q208.6506 346.41876 208.6506 346.60626L204.00998 346.60626Q204.07248 347.6375 204.5881 348.1844Q205.10373 348.71564 205.88498 348.71564Q206.4631 348.71564 206.86935 348.41876Q207.29123 348.10626 207.5256 347.45ZM204.07248 345.7469L207.54123 345.7469Q207.47873 344.95 207.1506 344.5594Q206.63498 343.95 205.8381 343.95Q205.10373 343.95 204.60373 344.4344Q204.11935 344.91876 204.07248 345.7469ZM210.2756 349.45L210.2756 343.23126L211.2131 343.23126L211.2131 344.10626Q211.9006 343.09064 213.19748 343.09064Q213.75998 343.09064 214.22873 343.29376Q214.7131 343.4969 214.94748 343.825Q215.18185 344.15314 215.2756 344.59064Q215.32248 344.8875 215.32248 345.6219L215.32248 349.45L214.2756 349.45L214.2756 345.66876Q214.2756 345.0125 214.1506 344.7Q214.0256 344.3875 213.7131 344.2Q213.4006 343.9969 212.97873 343.9969Q212.30685 343.9969 211.80685 344.4344Q211.32248 344.85626 211.32248 346.04376L211.32248 349.45L210.2756 349.45ZM221.30685 349.45L221.30685 348.66876Q220.7131 349.59064 219.57248 349.59064Q218.82248 349.59064 218.19748 349.1844Q217.57248 348.7625 217.22873 348.02814Q216.88498 347.29376 216.88498 346.34064Q216.88498 345.41876 217.19748 344.65314Q217.50998 343.8875 218.13498 343.4969Q218.75998 343.09064 219.5256 343.09064Q220.0881 343.09064 220.5256 343.325Q220.9631 343.5594 221.24435 343.9344L221.24435 340.85626L222.29123 340.85626L222.29123 349.45L221.30685 349.45ZM217.97873 346.34064Q217.97873 347.54376 218.47873 348.1375Q218.97873 348.71564 219.66623 348.71564Q220.35373 348.71564 220.8381 348.15314Q221.32248 347.59064 221.32248 346.4344Q221.32248 345.15314 220.82248 344.5594Q220.3381 343.96564 219.61935 343.96564Q218.91623 343.96564 218.44748 344.54376Q217.97873 345.10626 217.97873 346.34064Z" fill-rule="nonzero"/><path fill="#000000" d="M404.00565 349.45L404.00565 340.85626L409.80252 340.85626L409.80252 341.8719L405.14627 341.8719L405.14627 344.52814L409.17752 344.52814L409.17752 345.54376L405.14627 345.54376L405.14627 349.45L404.00565 349.45ZM410.80252 349.45L410.80252 343.23126L411.75565 343.23126L411.75565 344.16876Q412.11502 343.5125 412.4119 343.3094Q412.7244 343.09064 413.0994 343.09064Q413.63065 343.09064 414.17752 343.41876L413.81815 344.40314Q413.42752 344.16876 413.05252 344.16876Q412.69315 344.16876 412.4119 344.3875Q412.14627 344.59064 412.0369 344.96564Q411.8494 345.52814 411.8494 346.1844L411.8494 349.45L410.80252 349.45ZM414.42752 346.34064Q414.42752 344.60626 415.38065 343.77814Q416.17752 343.09064 417.33377 343.09064Q418.61502 343.09064 419.42752 343.9344Q420.25565 344.7625 420.25565 346.2469Q420.25565 347.45 419.89627 348.1375Q419.5369 348.825 418.83377 349.21564Q418.14627 349.59064 417.33377 349.59064Q416.0369 349.59064 415.2244 348.7625Q414.42752 347.91876 414.42752 346.34064ZM415.50565 346.34064Q415.50565 347.52814 416.02127 348.1219Q416.55252 348.71564 417.33377 348.71564Q418.13065 348.71564 418.64627 348.1219Q419.1619 347.52814 419.1619 346.3094Q419.1619 345.15314 418.63065 344.5594Q418.11502 343.96564 417.33377 343.96564Q416.55252 343.96564 416.02127 344.5594Q415.50565 345.1375 415.50565 346.34064ZM421.81815 349.45L421.81815 343.23126L422.75565 343.23126L422.75565 344.10626Q423.44315 343.09064 424.74002 343.09064Q425.30252 343.09064 425.77127 343.29376Q426.25565 343.4969 426.49002 343.825Q426.7244 344.15314 426.81815 344.59064Q426.86502 344.8875 426.86502 345.6219L426.86502 349.45L425.81815 349.45L425.81815 345.66876Q425.81815 345.0125 425.69315 344.7Q425.56815 344.3875 425.25565 344.2Q424.94315 343.9969 424.52127 343.9969Q423.8494 343.9969 423.3494 344.4344Q422.86502 344.85626 422.86502 346.04376L422.86502 349.45L421.81815 349.45ZM431.11502 348.5125L431.27127 349.4344Q430.81815 349.52814 430.4744 349.52814Q429.89627 349.52814 429.58377 349.35626Q429.27127 349.16876 429.13065 348.8719Q429.00565 348.575 429.00565 347.6219L429.00565 344.04376L428.24002 344.04376L428.24002 343.23126L429.00565 343.23126L429.00565 341.6844L430.05252 341.0594L430.05252 343.23126L431.11502 343.23126L431.11502 344.04376L430.05252 344.04376L430.05252 347.6844Q430.05252 348.1375 430.0994 348.2625Q430.1619 348.3875 430.2869 348.46564Q430.4119 348.54376 430.64627 348.54376Q430.83377 348.54376 431.11502 348.5125ZM436.06815 347.45L437.1619 347.575Q436.9119 348.52814 436.20877 349.0594Q435.50565 349.59064 434.42752 349.59064Q433.06815 349.59064 432.25565 348.7469Q431.45877 347.90314 431.45877 346.3875Q431.45877 344.825 432.27127 343.96564Q433.08377 343.09064 434.36502 343.09064Q435.61502 343.09064 436.39627 343.9344Q437.19315 344.77814 437.19315 346.325Q437.19315 346.41876 437.19315 346.60626L432.55252 346.60626Q432.61502 347.6375 433.13065 348.1844Q433.64627 348.71564 434.42752 348.71564Q435.00565 348.71564 435.4119 348.41876Q435.83377 348.10626 436.06815 347.45ZM432.61502 345.7469L436.08377 345.7469Q436.02127 344.95 435.69315 344.5594Q435.17752 343.95 434.38065 343.95Q433.64627 343.95 433.14627 344.4344Q432.6619 344.91876 432.61502 345.7469ZM438.81815 349.45L438.81815 343.23126L439.75565 343.23126L439.75565 344.10626Q440.44315 343.09064 441.74002 343.09064Q442.30252 343.09064 442.77127 343.29376Q443.25565 343.4969 443.49002 343.825Q443.7244 344.15314 443.81815 344.59064Q443.86502 344.8875 443.86502 345.6219L443.86502 349.45L442.81815 349.45L442.81815 345.66876Q442.81815 345.0125 442.69315 344.7Q442.56815 344.3875 442.25565 344.2Q441.94315 343.9969 441.52127 343.9969Q440.8494 343.9969 440.3494 344.4344Q439.86502 344.85626 439.86502 346.04376L439.86502 349.45L438.81815 349.45ZM449.8494 349.45L449.8494 348.66876Q449.25565 349.59064 448.11502 349.59064Q447.36502 349.59064 446.74002 349.1844Q446.11502 348.7625 445.77127 348.02814Q445.42752 347.29376 445.42752 346.34064Q445.42752 345.41876 445.74002 344.65314Q446.05252 343.8875 446.67752 343.4969Q447.30252 343.09064 448.06815 343.09064Q448.63065 343.09064 449.06815 343.325Q449.50565 343.5594 449.7869 343.9344L449.7869 340.85626L450.83377 340.85626L450.83377 349.45L449.8494 349.45ZM446.52127 346.34064Q446.52127 347.54376 447.02127 348.1375Q447.52127 348.71564 448.20877 348.71564Q448.89627 348.71564 449.38065 348.15314Q449.86502 347.59064 449.86502 346.4344Q449.86502 345.15314 449.36502 344.5594Q448.88065 343.96564 448.1619 343.96564Q447.45877 343.96564 446.99002 344.54376Q446.52127 345.10626 446.52127 346.34064Z" fill-rule="nonzero"/><path fill="#5891ad" d="M229.5 20.55C229.5 19.997715 229.94771 19.55 230.5 19.55L240.5 19.55C241.05229 19.55 241.5 19.997715 241.5 20.55L241.5 30.55C241.5 31.102285 241.05229 31.55 240.5 31.55L230.5 31.55C229.94771 31.55 229.5 31.102285 229.5 30.55Z" fill-rule="nonzero"/><path fill="#1a1a1a" d="M249.48438 29.55L252.78125 20.95625L254.0 20.95625L257.51562 29.55L256.23438 29.55L255.21875 26.940624L251.64062 26.940624L250.6875 29.55L249.48438 29.55ZM251.96875 26.01875L254.875 26.01875L253.98438 23.64375Q253.5625 22.565624 253.375 21.8625Q253.20312 22.690624 252.90625 23.503124L251.96875 26.01875ZM259.59375 28.6125L259.75 29.534374Q259.29688 29.628124 258.95312 29.628124Q258.375 29.628124 258.0625 29.45625Q257.75 29.26875 257.60938 28.971874Q257.48438 28.675 257.48438 27.721874L257.48438 24.14375L256.71875 24.14375L256.71875 23.33125L257.48438 23.33125L257.48438 21.784374L258.53125 21.159374L258.53125 23.33125L259.59375 23.33125L259.59375 24.14375L258.53125 24.14375L258.53125 27.784374Q258.53125 28.2375 258.57812 28.3625Q258.64062 28.4875 258.76562 28.565624Q258.89062 28.64375 259.125 28.64375Q259.3125 28.64375 259.59375 28.6125ZM262.59375 28.6125L262.75 29.534374Q262.29688 29.628124 261.95312 29.628124Q261.375 29.628124 261.0625 29.45625Q260.75 29.26875 260.60938 28.971874Q260.48438 28.675 260.48438 27.721874L260.48438 24.14375L259.71875 24.14375L259.71875 23.33125L260.48438 23.33125L260.48438 21.784374L261.53125 21.159374L261.53125 23.33125L262.59375 23.33125L262.59375 24.14375L261.53125 24.14375L261.53125 27.784374Q261.53125 28.2375 261.57812 28.3625Q261.64062 28.4875 261.76562 28.565624Q261.89062 28.64375 262.125 28.64375Q262.3125 28.64375 262.59375 28.6125ZM267.54688 27.55L268.64062 27.675Q268.39062 28.628124 267.6875 29.159374Q266.98438 29.690624 265.90625 29.690624Q264.54688 29.690624 263.73438 28.846874Q262.9375 28.003124 262.9375 26.4875Q262.9375 24.925 263.75 24.065624Q264.5625 23.190624 265.84375 23.190624Q267.09375 23.190624 267.875 24.034374Q268.67188 24.878124 268.67188 26.425Q268.67188 26.51875 268.67188 26.70625L264.03125 26.70625Q264.09375 27.7375 264.60938 28.284374Q265.125 28.815624 265.90625 28.815624Q266.48438 28.815624 266.89062 28.51875Q267.3125 28.20625 267.54688 27.55ZM264.09375 25.846874L267.5625 25.846874Q267.5 25.05 267.17188 24.659374Q266.65625 24.05 265.85938 24.05Q265.125 24.05 264.625 24.534374Q264.14062 25.01875 264.09375 25.846874ZM270.29688 29.55L270.29688 23.33125L271.23438 23.33125L271.23438 24.20625Q271.92188 23.190624 273.21875 23.190624Q273.78125 23.190624 274.25 23.39375Q274.73438 23.596874 274.96875 23.925Q275.20312 24.253124 275.29688 24.690624Q275.34375 24.9875 275.34375 25.721874L275.34375 29.55L274.29688 29.55L274.29688 25.76875Q274.29688 25.1125 274.17188 24.8Q274.04688 24.4875 273.73438 24.3Q273.42188 24.096874 273.0 24.096874Q272.32812 24.096874 271.82812 24.534374Q271.34375 24.95625 271.34375 26.14375L271.34375 29.55L270.29688 29.55ZM281.32812 29.55L281.32812 28.76875Q280.73438 29.690624 279.59375 29.690624Q278.84375 29.690624 278.21875 29.284374Q277.59375 28.8625 277.25 28.128124Q276.90625 27.39375 276.90625 26.440624Q276.90625 25.51875 277.21875 24.753124Q277.53125 23.9875 278.15625 23.596874Q278.78125 23.190624 279.54688 23.190624Q280.10938 23.190624 280.54688 23.425Q280.98438 23.659374 281.26562 24.034374L281.26562 20.95625L282.3125 20.95625L282.3125 29.55L281.32812 29.55ZM278.0 26.440624Q278.0 27.64375 278.5 28.2375Q279.0 28.815624 279.6875 28.815624Q280.375 28.815624 280.85938 28.253124Q281.34375 27.690624 281.34375 26.534374Q281.34375 25.253124 280.84375 24.659374Q280.35938 24.065624 279.64062 24.065624Q278.9375 24.065624 278.46875 24.64375Q278.0 25.20625 278.0 26.440624ZM288.375 29.55L288.375 28.628124Q287.64062 29.690624 286.39062 29.690624Q285.84375 29.690624 285.35938 29.4875Q284.89062 29.26875 284.65625 28.95625Q284.42188 28.628124 284.32812 28.159374Q284.26562 27.8625 284.26562 27.175L284.26562 23.33125L285.32812 23.33125L285.32812 26.784374Q285.32812 27.596874 285.39062 27.89375Q285.48438 28.3 285.79688 28.55Q286.125 28.784374 286.60938 28.784374Q287.07812 28.784374 287.48438 28.55Q287.90625 28.3 288.07812 27.878124Q288.26562 27.45625 288.26562 26.659374L288.26562 23.33125L289.3125 23.33125L289.3125 29.55L288.375 29.55Z" fill-rule="nonzero"/><path fill="#004561" d="M306.5 20.55C306.5 19.997715 306.94772 19.55 307.5 19.55L317.5 19.55C318.05228 19.55 318.5 19.997715 318.5 20.55L318.5 30.55C318.5 31.102285 318.05228 31.55 317.5 31.55L307.5 31.55C306.94772 31.55 306.5 31.102285 306.5 30.55Z" fill-rule="nonzero"/><path fill="#1a1a1a" d="M327.45312 29.55L327.45312 20.95625L333.65625 20.95625L333.65625 21.971874L328.59375 21.971874L328.59375 24.596874L333.34375 24.596874L333.34375 25.6125L328.59375 25.6125L328.59375 28.534374L333.85938 28.534374L333.85938 29.55L327.45312 29.55ZM335.54688 29.55L335.54688 24.14375L334.60938 24.14375L334.60938 23.33125L335.54688 23.33125L335.54688 22.659374Q335.54688 22.034374 335.65625 21.7375Q335.8125 21.315624 336.1875 21.065624Q336.57812 20.815624 337.26562 20.815624Q337.71875 20.815624 338.25 20.925L338.09375 21.83125Q337.76562 21.784374 337.46875 21.784374Q336.98438 21.784374 336.78125 21.9875Q336.59375 22.190624 336.59375 22.753124L336.59375 23.33125L337.8125 23.33125L337.8125 24.14375L336.59375 24.14375L336.59375 29.55L335.54688 29.55ZM338.54688 29.55L338.54688 24.14375L337.60938 24.14375L337.60938 23.33125L338.54688 23.33125L338.54688 22.659374Q338.54688 22.034374 338.65625 21.7375Q338.8125 21.315624 339.1875 21.065624Q339.57812 20.815624 340.26562 20.815624Q340.71875 20.815624 341.25 20.925L341.09375 21.83125Q340.76562 21.784374 340.46875 21.784374Q339.98438 21.784374 339.78125 21.9875Q339.59375 22.190624 339.59375 22.753124L339.59375 23.33125L340.8125 23.33125L340.8125 24.14375L339.59375 24.14375L339.59375 29.55L338.54688 29.55ZM345.54688 27.55L346.64062 27.675Q346.39062 28.628124 345.6875 29.159374Q344.98438 29.690624 343.90625 29.690624Q342.54688 29.690624 341.73438 28.846874Q340.9375 28.003124 340.9375 26.4875Q340.9375 24.925 341.75 24.065624Q342.5625 23.190624 343.84375 23.190624Q345.09375 23.190624 345.875 24.034374Q346.67188 24.878124 346.67188 26.425Q346.67188 26.51875 346.67188 26.70625L342.03125 26.70625Q342.09375 27.7375 342.60938 28.284374Q343.125 28.815624 343.90625 28.815624Q344.48438 28.815624 344.89062 28.51875Q345.3125 28.20625 345.54688 27.55ZM342.09375 25.846874L345.5625 25.846874Q345.5 25.05 345.17188 24.659374Q344.65625 24.05 343.85938 24.05Q343.125 24.05 342.625 24.534374Q342.14062 25.01875 342.09375 25.846874ZM352.35938 27.26875L353.39062 27.409374Q353.21875 28.471874 352.51562 29.08125Q351.8125 29.690624 350.79688 29.690624Q349.51562 29.690624 348.73438 28.8625Q347.96875 28.01875 347.96875 26.45625Q347.96875 25.45625 348.29688 24.70625Q348.64062 23.940624 349.3125 23.565624Q350.0 23.190624 350.8125 23.190624Q351.8125 23.190624 352.45312 23.70625Q353.10938 24.20625 353.29688 25.159374L352.26562 25.315624Q352.125 24.690624 351.75 24.378124Q351.375 24.05 350.84375 24.05Q350.04688 24.05 349.54688 24.628124Q349.04688 25.190624 349.04688 26.425Q349.04688 27.690624 349.53125 28.253124Q350.01562 28.815624 350.78125 28.815624Q351.40625 28.815624 351.8125 28.440624Q352.23438 28.065624 352.35938 27.26875ZM356.59375 28.6125L356.75 29.534374Q356.29688 29.628124 355.95312 29.628124Q355.375 29.628124 355.0625 29.45625Q354.75 29.26875 354.60938 28.971874Q354.48438 28.675 354.48438 27.721874L354.48438 24.14375L353.71875 24.14375L353.71875 23.33125L354.48438 23.33125L354.48438 21.784374L355.53125 21.159374L355.53125 23.33125L356.59375 23.33125L356.59375 24.14375L355.53125 24.14375L355.53125 27.784374Q355.53125 28.2375 355.57812 28.3625Q355.64062 28.4875 355.76562 28.565624Q355.89062 28.64375 356.125 28.64375Q356.3125 28.64375 356.59375 28.6125ZM361.375 29.55L361.375 28.628124Q360.64062 29.690624 359.39062 29.690624Q358.84375 29.690624 358.35938 29.4875Q357.89062 29.26875 357.65625 28.95625Q357.42188 28.628124 357.32812 28.159374Q357.26562 27.8625 357.26562 27.175L357.26562 23.33125L358.32812 23.33125L358.32812 26.784374Q358.32812 27.596874 358.39062 27.89375Q358.48438 28.3 358.79688 28.55Q359.125 28.784374 359.60938 28.784374Q360.07812 28.784374 360.48438 28.55Q360.90625 28.3 361.07812 27.878124Q361.26562 27.45625 361.26562 26.659374L361.26562 23.33125L362.3125 23.33125L362.3125 29.55L361.375 29.55ZM368.54688 27.55L369.64062 27.675Q369.39062 28.628124 368.6875 29.159374Q367.98438 29.690624 366.90625 29.690624Q365.54688 29.690624 364.73438 28.846874Q363.9375 28.003124 363.9375 26.4875Q363.9375 24.925 364.75 24.065624Q365.5625 23.190624 366.84375 23.190624Q368.09375 23.190624 368.875 24.034374Q369.67188 24.878124 369.67188 26.425Q369.67188 26.51875 369.67188 26.70625L365.03125 26.70625Q365.09375 27.7375 365.60938 28.284374Q366.125 28.815624 366.90625 28.815624Q367.48438 28.815624 367.89062 28.51875Q368.3125 28.20625 368.54688 27.55ZM365.09375 25.846874L368.5625 25.846874Q368.5 25.05 368.17188 24.659374Q367.65625 24.05 366.85938 24.05Q366.125 24.05 365.625 24.534374Q365.14062 25.01875 365.09375 25.846874ZM366.21875 22.55L367.0 20.909374L368.39062 20.909374L367.09375 22.55L366.21875 22.55Z" fill-rule="nonzero"/></svg>