<svg version="1.1" viewBox="0.0 0.0 600.0 371.0" fill="none" stroke="none" stroke-linecap="square" stroke-miterlimit="10" width="600" height="371" xmlns:xlink="http://www.w3.org/1999/xlink" xmlns="http://www.w3.org/2000/svg"><path fill="#ffffff" d="M0 0L600.0 0L600.0 371.0L0 371.0L0 0Z" fill-rule="nonzero"/><path stroke="#333333" stroke-width="1.0" stroke-linecap="butt" d="M77.5 332.5L581.5 332.5" fill-rule="nonzero"/><path stroke="#cccccc" stroke-width="1.0" stroke-linecap="butt" d="M77.5 276.5L581.5 276.5" fill-rule="nonzero"/><path stroke="#cccccc" stroke-width="1.0" stroke-linecap="butt" d="M77.5 220.5L581.5 220.5" fill-rule="nonzero"/><path stroke="#cccccc" stroke-width="1.0" stroke-linecap="butt" d="M77.5 164.5L581.5 164.5" fill-rule="nonzero"/><path stroke="#cccccc" stroke-width="1.0" stroke-linecap="butt" d="M77.5 108.5L581.5 108.5" fill-rule="nonzero"/><path stroke="#cccccc" stroke-width="1.0" stroke-linecap="butt" d="M77.5 51.5L581.5 51.5" fill-rule="nonzero"/><clipPath id="id_0"><path d="M77.55 51.916668L581.45 51.916668L581.45 332.45L77.55 332.45L77.55 51.916668Z" clip-rule="nonzero"/></clipPath><path stroke="#000000" stroke-width="2.0" stroke-linecap="butt" stroke-opacity="0.0" clip-path="url(#id_0)" d="M221.0 332.0L153.0 332.0L153.0 278.0C153.0 276.89542 153.89543 276.0 155.0 276.0L219.0 276.0C220.10457 276.0 221.0 276.89542 221.0 278.0Z" fill-rule="nonzero"/><path fill="#5891ad" clip-path="url(#id_0)" d="M221.0 332.0L153.0 332.0L153.0 278.0C153.0 276.89542 153.89543 276.0 155.0 276.0L219.0 276.0C220.10457 276.0 221.0 276.89542 221.0 278.0Z" fill-rule="nonzero"/><path stroke="#000000" stroke-width="2.0" stroke-linecap="butt" stroke-opacity="0.0" clip-path="url(#id_0)" d="M436.0 332.0L368.0 332.0L368.0 204.0C368.0 202.89543 368.89542 202.0 370.0 202.0L434.0 202.0C435.10458 202.0 436.0 202.89543 436.0 204.0Z" fill-rule="nonzero"/><path fill="#5891ad" clip-path="url(#id_0)" d="M436.0 332.0L368.0 332.0L368.0 204.0C368.0 202.89543 368.89542 202.0 370.0 202.0L434.0 202.0C435.10458 202.0 436.0 202.89543 436.0 204.0Z" fill-rule="nonzero"/><path stroke="#000000" stroke-width="2.0" stroke-linecap="butt" stroke-opacity="0.0" clip-path="url(#id_0)" d="M291.0 332.0L223.0 332.0L223.0 224.0C223.0 222.89543 223.89543 222.0 225.0 222.0L289.0 222.0C290.10458 222.0 291.0 222.89543 291.0 224.0Z" fill-rule="nonzero"/><path fill="#004561" clip-path="url(#id_0)" d="M291.0 332.0L223.0 332.0L223.0 224.0C223.0 222.89543 223.89543 222.0 225.0 222.0L289.0 222.0C290.10458 222.0 291.0 222.89543 291.0 224.0Z" fill-rule="nonzero"/><path stroke="#000000" stroke-width="2.0" stroke-linecap="butt" stroke-opacity="0.0" clip-path="url(#id_0)" d="M506.0 332.0L438.0 332.0L438.0 103.0C438.0 101.89543 438.89542 101.0 440.0 101.0L504.0 101.0C505.10458 101.0 506.0 101.89543 506.0 103.0Z" fill-rule="nonzero"/><path fill="#004561" clip-path="url(#id_0)" d="M506.0 332.0L438.0 332.0L438.0 103.0C438.0 101.89543 438.89542 101.0 440.0 101.0L504.0 101.0C505.10458 101.0 506.0 101.89543 506.0 103.0Z" fill-rule="nonzero"/><path fill="#000000" d="M29.550013 218.21458L20.956263 218.21458L20.956263 217.08958L24.487513 217.08958L24.487513 212.62083L20.956263 212.62083L20.956263 211.48021L29.550013 211.48021L29.550013 212.62083L25.503138 212.62083L25.503138 217.08958L29.550013 217.08958L29.550013 218.21458ZM27.550013 205.13646L27.675013 204.04271Q28.628138 204.29271 29.159388 204.99583Q29.690638 205.69896 29.690638 206.77708Q29.690638 208.13646 28.846888 208.94896Q28.003138 209.74583 26.487513 209.74583Q24.925013 209.74583 24.065638 208.93333Q23.190638 208.12083 23.190638 206.83958Q23.190638 205.58958 24.034388 204.80833Q24.878138 204.01146 26.425013 204.01146Q26.518763 204.01146 26.706263 204.01146L26.706263 208.65208Q27.737513 208.58958 28.284388 208.07396Q28.815638 207.55833 28.815638 206.77708Q28.815638 206.19896 28.518763 205.79271Q28.206263 205.37083 27.550013 205.13646ZM25.846888 208.58958L25.846888 205.12083Q25.050013 205.18333 24.659388 205.51146Q24.050013 206.02708 24.050013 206.82396Q24.050013 207.55833 24.534388 208.05833Q25.018763 208.54271 25.846888 208.58958ZM29.550013 198.30833L28.628138 198.30833Q29.690638 199.04271 29.690638 200.29271Q29.690638 200.83958 29.487513 201.32396Q29.268763 201.79271 28.956263 202.02708Q28.628138 202.26146 28.159388 202.35521Q27.862513 202.41771 27.175013 202.41771L23.331263 202.41771L23.331263 201.35521L26.784388 201.35521Q27.596888 201.35521 27.893763 201.29271Q28.300013 201.19896 28.550013 200.88646Q28.784388 200.55833 28.784388 200.07396Q28.784388 199.60521 28.550013 199.19896Q28.300013 198.77708 27.878138 198.60521Q27.456263 198.41771 26.659388 198.41771L23.331263 198.41771L23.331263 197.37083L29.550013 197.37083L29.550013 198.30833ZM29.550013 195.40208L23.331263 195.40208L23.331263 194.44896L24.268763 194.44896Q23.612513 194.08958 23.409388 193.79271Q23.190638 193.48021 23.190638 193.10521Q23.190638 192.57396 23.518763 192.02708L24.503138 192.38646Q24.268763 192.77708 24.268763 193.15208Q24.268763 193.51146 24.487513 193.79271Q24.690638 194.05833 25.065638 194.16771Q25.628138 194.35521 26.284388 194.35521L29.550013 194.35521L29.550013 195.40208ZM27.550013 187.13646L27.675013 186.04271Q28.628138 186.29271 29.159388 186.99583Q29.690638 187.69896 29.690638 188.77708Q29.690638 190.13646 28.846888 190.94896Q28.003138 191.74583 26.487513 191.74583Q24.925013 191.74583 24.065638 190.93333Q23.190638 190.12083 23.190638 188.83958Q23.190638 187.58958 24.034388 186.80833Q24.878138 186.01146 26.425013 186.01146Q26.518763 186.01146 26.706263 186.01146L26.706263 190.65208Q27.737513 190.58958 28.284388 190.07396Q28.815638 189.55833 28.815638 188.77708Q28.815638 188.19896 28.518763 187.79271Q28.206263 187.37083 27.550013 187.13646ZM25.846888 190.58958L25.846888 187.12083Q25.050013 187.18333 24.659388 187.51146Q24.050013 188.02708 24.050013 188.82396Q24.050013 189.55833 24.534388 190.05833Q25.018763 190.54271 25.846888 190.58958ZM27.690638 184.80833L27.534388 183.77708Q28.159388 183.68333 28.487513 183.29271Q28.815638 182.88646 28.815638 182.15208Q28.815638 181.43333 28.534388 181.08958Q28.237513 180.73021 27.831263 180.73021Q27.471888 180.73021 27.268763 181.04271Q27.128138 181.26146 26.909388 182.12083Q26.612513 183.27708 26.409388 183.73021Q26.190638 184.16771 25.815638 184.40208Q25.440638 184.63646 24.971888 184.63646Q24.565638 184.63646 24.206263 184.44896Q23.846888 184.26146 23.612513 183.93333Q23.440638 183.68333 23.315638 183.26146Q23.190638 182.83958 23.190638 182.33958Q23.190638 181.62083 23.409388 181.07396Q23.612513 180.51146 23.971888 180.24583Q24.331263 179.98021 24.925013 179.88646L25.065638 180.91771Q24.596888 180.98021 24.331263 181.32396Q24.050013 181.65208 24.050013 182.27708Q24.050013 182.99583 24.300013 183.30833Q24.534388 183.62083 24.862513 183.62083Q25.065638 183.62083 25.221888 183.49583Q25.393763 183.35521 25.503138 183.08958Q25.565638 182.93333 25.768763 182.15208Q26.081263 181.02708 26.268763 180.58958Q26.456263 180.15208 26.815638 179.90208Q27.175013 179.65208 27.721888 179.65208Q28.253138 179.65208 28.721888 179.96458Q29.175013 180.26146 29.440638 180.83958Q29.690638 181.41771 29.690638 182.15208Q29.690638 183.37083 29.190638 184.01146Q28.675013 184.63646 27.690638 184.80833Z" fill-rule="nonzero"/><path fill="#000000" d="M65.05 332.21564Q65.05 330.6844 65.3625 329.7625Q65.675 328.825 66.28438 328.325Q66.90938 327.825 67.84688 327.825Q68.53438 327.825 69.05 328.10626Q69.58125 328.3875 69.925 328.91876Q70.26875 329.4344 70.45625 330.1844Q70.64375 330.9344 70.64375 332.21564Q70.64375 333.73126 70.33125 334.65314Q70.03438 335.575 69.40938 336.09064Q68.8 336.59064 67.84688 336.59064Q66.6125 336.59064 65.89375 335.7Q65.05 334.6375 65.05 332.21564ZM66.12813 332.21564Q66.12813 334.325 66.62813 335.02814Q67.12813 335.73126 67.84688 335.73126Q68.58125 335.73126 69.06563 335.02814Q69.56563 334.325 69.56563 332.21564Q69.56563 330.09064 69.06563 329.40314Q68.58125 328.7 67.83125 328.7Q67.1125 328.7 66.675 329.3094Q66.12813 330.09064 66.12813 332.21564Z" fill-rule="nonzero"/><path fill="#000000" d="M63.596874 279.3277L63.596874 280.34332L57.909374 280.34332Q57.909374 279.96832 58.034374 279.60895Q58.253124 279.03082 58.721874 278.46832Q59.20625 277.90582 60.1125 277.17145Q61.51875 276.0152 62.003124 275.34332Q62.503124 274.67145 62.503124 274.0777Q62.503124 273.4527 62.05 273.03082Q61.596874 272.59332 60.878124 272.59332Q60.1125 272.59332 59.659374 273.04645Q59.20625 273.49957 59.190624 274.31207L58.1125 274.2027Q58.221874 272.98395 58.940624 272.35895Q59.675 271.71832 60.909374 271.71832Q62.14375 271.71832 62.8625 272.40582Q63.58125 273.09332 63.58125 274.10895Q63.58125 274.62457 63.3625 275.12457Q63.159374 275.60895 62.659374 276.17145Q62.175 276.71832 61.05 277.67145Q60.096874 278.46832 59.815624 278.7652Q59.55 279.04645 59.378124 279.3277L63.596874 279.3277ZM65.05 278.09332L66.15938 277.99957Q66.28438 278.81207 66.72188 279.21832Q67.175 279.62457 67.81563 279.62457Q68.56563 279.62457 69.09688 279.04645Q69.62813 278.46832 69.62813 277.53082Q69.62813 276.62457 69.1125 276.10895Q68.6125 275.5777 67.78438 275.5777Q67.28438 275.5777 66.8625 275.81207Q66.45625 276.04645 66.22188 276.40582L65.2375 276.28082L66.06563 271.87457L70.34688 271.87457L70.34688 272.87457L66.90938 272.87457L66.45625 275.18707Q67.22188 274.6402 68.06563 274.6402Q69.19063 274.6402 69.95625 275.42145Q70.7375 276.2027 70.7375 277.43707Q70.7375 278.59332 70.06563 279.4527Q69.2375 280.48395 67.81563 280.48395Q66.64375 280.48395 65.89375 279.8277Q65.15938 279.17145 65.05 278.09332Z" fill-rule="nonzero"/><path fill="#000000" d="M58.05 221.98666L59.159374 221.89291Q59.284374 222.70541 59.721874 223.11166Q60.175 223.51791 60.815624 223.51791Q61.565624 223.51791 62.096874 222.93979Q62.628124 222.36166 62.628124 221.42416Q62.628124 220.51791 62.1125 220.00229Q61.6125 219.47104 60.784374 219.47104Q60.284374 219.47104 59.8625 219.70541Q59.45625 219.93979 59.221874 220.29916L58.2375 220.17416L59.065624 215.76791L63.346874 215.76791L63.346874 216.76791L59.909374 216.76791L59.45625 219.08041Q60.221874 218.53354 61.065624 218.53354Q62.190624 218.53354 62.95625 219.31479Q63.7375 220.09604 63.7375 221.33041Q63.7375 222.48666 63.065624 223.34604Q62.2375 224.37729 60.815624 224.37729Q59.64375 224.37729 58.89375 223.72104Q58.159374 223.06479 58.05 221.98666ZM65.05 220.00229Q65.05 218.47104 65.3625 217.54916Q65.675 216.61166 66.28438 216.11166Q66.90938 215.61166 67.84688 215.61166Q68.53438 215.61166 69.05 215.89291Q69.58125 216.17416 69.925 216.70541Q70.26875 217.22104 70.45625 217.97104Q70.64375 218.72104 70.64375 220.00229Q70.64375 221.51791 70.33125 222.43979Q70.03438 223.36166 69.40938 223.87729Q68.8 224.37729 67.84688 224.37729Q66.6125 224.37729 65.89375 223.48666Q65.05 222.42416 65.05 220.00229ZM66.12813 220.00229Q66.12813 222.11166 66.62813 222.81479Q67.12813 223.51791 67.84688 223.51791Q68.58125 223.51791 69.06563 222.81479Q69.56563 222.11166 69.56563 220.00229Q69.56563 217.87729 69.06563 217.18979Q68.58125 216.48666 67.83125 216.48666Q67.1125 216.48666 66.675 217.09604Q66.12813 217.87729 66.12813 220.00229Z" fill-rule="nonzero"/><path fill="#000000" d="M58.1125 160.66125L58.1125 159.64563L63.675 159.64563L63.675 160.47375Q62.8625 161.34875 62.05 162.80188Q61.253124 164.23938 60.815624 165.77063Q60.4875 166.84875 60.409374 168.13L59.315624 168.13Q59.33125 167.11438 59.70625 165.67688Q60.096874 164.23938 60.8 162.91125Q61.51875 161.58313 62.33125 160.66125L58.1125 160.66125ZM65.05 165.88L66.15938 165.78625Q66.28438 166.59875 66.72188 167.005Q67.175 167.41125 67.81563 167.41125Q68.56563 167.41125 69.09688 166.83313Q69.62813 166.255 69.62813 165.3175Q69.62813 164.41125 69.1125 163.89563Q68.6125 163.36438 67.78438 163.36438Q67.28438 163.36438 66.8625 163.59875Q66.45625 163.83313 66.22188 164.1925L65.2375 164.0675L66.06563 159.66125L70.34688 159.66125L70.34688 160.66125L66.90938 160.66125L66.45625 162.97375Q67.22188 162.42688 68.06563 162.42688Q69.19063 162.42688 69.95625 163.20813Q70.7375 163.98938 70.7375 165.22375Q70.7375 166.38 70.06563 167.23938Q69.2375 168.27063 67.81563 168.27063Q66.64375 168.27063 65.89375 167.61438Q65.15938 166.95813 65.05 165.88Z" fill-rule="nonzero"/><path fill="#000000" d="M55.01875 112.02333L53.971874 112.02333L53.971874 105.30458Q53.58125 105.663956 52.95625 106.038956Q52.346874 106.39833 51.8625 106.570206L51.8625 105.55458Q52.7375 105.132706 53.39375 104.55458Q54.065624 103.96083 54.346874 103.39833L55.01875 103.39833L55.01875 112.02333ZM58.05 107.788956Q58.05 106.257706 58.3625 105.33583Q58.675 104.39833 59.284374 103.89833Q59.909374 103.39833 60.846874 103.39833Q61.534374 103.39833 62.05 103.67958Q62.58125 103.96083 62.925 104.49208Q63.26875 105.007706 63.45625 105.757706Q63.64375 106.507706 63.64375 107.788956Q63.64375 109.30458 63.33125 110.226456Q63.034374 111.14833 62.409374 111.663956Q61.8 112.163956 60.846874 112.163956Q59.6125 112.163956 58.89375 111.27333Q58.05 110.21083 58.05 107.788956ZM59.128124 107.788956Q59.128124 109.89833 59.628124 110.601456Q60.128124 111.30458 60.846874 111.30458Q61.58125 111.30458 62.065624 110.601456Q62.565624 109.89833 62.565624 107.788956Q62.565624 105.663956 62.065624 104.976456Q61.58125 104.27333 60.83125 104.27333Q60.1125 104.27333 59.675 104.882706Q59.128124 105.663956 59.128124 107.788956ZM65.05 107.788956Q65.05 106.257706 65.3625 105.33583Q65.675 104.39833 66.28438 103.89833Q66.90938 103.39833 67.84688 103.39833Q68.53438 103.39833 69.05 103.67958Q69.58125 103.96083 69.925 104.49208Q70.26875 105.007706 70.45625 105.757706Q70.64375 106.507706 70.64375 107.788956Q70.64375 109.30458 70.33125 110.226456Q70.03438 111.14833 69.40938 111.663956Q68.8 112.163956 67.84688 112.163956Q66.6125 112.163956 65.89375 111.27333Q65.05 110.21083 65.05 107.788956ZM66.12813 107.788956Q66.12813 109.89833 66.62813 110.601456Q67.12813 111.30458 67.84688 111.30458Q68.58125 111.30458 69.06563 110.601456Q69.56563 109.89833 69.56563 107.788956Q69.56563 105.663956 69.06563 104.976456Q68.58125 104.27333 67.83125 104.27333Q67.1125 104.27333 66.675 104.882706Q66.12813 105.663956 66.12813 107.788956Z" fill-rule="nonzero"/><path fill="#000000" d="M55.01875 55.916668L53.971874 55.916668L53.971874 49.197918Q53.58125 49.557293 52.95625 49.932293Q52.346874 50.291668 51.8625 50.463543L51.8625 49.447918Q52.7375 49.026043 53.39375 48.447918Q54.065624 47.854168 54.346874 47.291668L55.01875 47.291668L55.01875 55.916668ZM63.596874 54.901043L63.596874 55.916668L57.909374 55.916668Q57.909374 55.541668 58.034374 55.182293Q58.253124 54.604168 58.721874 54.041668Q59.20625 53.479168 60.1125 52.744793Q61.51875 51.588543 62.003124 50.916668Q62.503124 50.244793 62.503124 49.651043Q62.503124 49.026043 62.05 48.604168Q61.596874 48.166668 60.878124 48.166668Q60.1125 48.166668 59.659374 48.619793Q59.20625 49.072918 59.190624 49.885418L58.1125 49.776043Q58.221874 48.557293 58.940624 47.932293Q59.675 47.291668 60.909374 47.291668Q62.14375 47.291668 62.8625 47.979168Q63.58125 48.666668 63.58125 49.682293Q63.58125 50.197918 63.3625 50.697918Q63.159374 51.182293 62.659374 51.744793Q62.175 52.291668 61.05 53.244793Q60.096874 54.041668 59.815624 54.338543Q59.55 54.619793 59.378124 54.901043L63.596874 54.901043ZM65.05 53.666668L66.15938 53.572918Q66.28438 54.385418 66.72188 54.791668Q67.175 55.197918 67.81563 55.197918Q68.56563 55.197918 69.09688 54.619793Q69.62813 54.041668 69.62813 53.104168Q69.62813 52.197918 69.1125 51.682293Q68.6125 51.151043 67.78438 51.151043Q67.28438 51.151043 66.8625 51.385418Q66.45625 51.619793 66.22188 51.979168L65.2375 51.854168L66.06563 47.447918L70.34688 47.447918L70.34688 48.447918L66.90938 48.447918L66.45625 50.760418Q67.22188 50.213543 68.06563 50.213543Q69.19063 50.213543 69.95625 50.994793Q70.7375 51.776043 70.7375 53.010418Q70.7375 54.166668 70.06563 55.026043Q69.2375 56.057293 67.81563 56.057293Q66.64375 56.057293 65.89375 55.401043Q65.15938 54.744793 65.05 53.666668Z" fill-rule="nonzero"/><path fill="#000000" d="M199.16223 349.45L199.16223 340.85626L202.3966 340.85626Q203.38098 340.85626 203.97473 341.1219Q204.56848 341.3875 204.8966 341.9344Q205.24036 342.46564 205.24036 343.0594Q205.24036 343.60626 204.94348 344.09064Q204.6466 344.575 204.03723 344.8719Q204.81848 345.10626 205.22473 345.66876Q205.6466 346.21564 205.6466 346.96564Q205.6466 347.5594 205.3966 348.09064Q205.1466 348.60626 204.7716 348.8875Q204.3966 349.16876 203.81848 349.3094Q203.25598 349.45 202.44348 349.45L199.16223 349.45ZM200.30286 344.46564L202.16223 344.46564Q202.91223 344.46564 203.24036 344.3719Q203.67786 344.2469 203.8966 343.95Q204.11536 343.6375 204.11536 343.1844Q204.11536 342.7625 203.91223 342.4344Q203.7091 342.10626 203.31848 341.9969Q202.94348 341.8719 202.0216 341.8719L200.30286 341.8719L200.30286 344.46564ZM200.30286 348.4344L202.44348 348.4344Q202.99036 348.4344 203.2091 348.3875Q203.61536 348.325 203.86536 348.16876Q204.13098 347.9969 204.30286 347.6844Q204.47473 347.3719 204.47473 346.96564Q204.47473 346.48126 204.22473 346.1219Q203.99036 345.7625 203.55286 345.6219Q203.11536 345.48126 202.28723 345.48126L200.30286 345.48126L200.30286 348.4344ZM211.1466 348.6844Q210.55286 349.1844 210.00598 349.3875Q209.47473 349.59064 208.84973 349.59064Q207.81848 349.59064 207.2716 349.09064Q206.72473 348.59064 206.72473 347.8094Q206.72473 347.35626 206.92786 346.98126Q207.13098 346.59064 207.47473 346.3719Q207.81848 346.1375 208.24036 346.02814Q208.53723 345.9344 209.17786 345.85626Q210.44348 345.71564 211.05286 345.4969Q211.05286 345.27814 211.05286 345.23126Q211.05286 344.575 210.75598 344.3094Q210.34973 343.96564 209.55286 343.96564Q208.81848 343.96564 208.4591 344.23126Q208.09973 344.48126 207.92786 345.1375L206.8966 344.9969Q207.03723 344.34064 207.36536 343.9344Q207.69348 343.52814 208.30286 343.3094Q208.91223 343.09064 209.7091 343.09064Q210.50598 343.09064 211.00598 343.27814Q211.50598 343.46564 211.74036 343.7469Q211.97473 344.02814 212.06848 344.46564Q212.11536 344.73126 212.11536 345.4344L212.11536 346.84064Q212.11536 348.3094 212.17786 348.7Q212.25598 349.09064 212.4591 349.45L211.34973 349.45Q211.19348 349.1219 211.1466 348.6844ZM211.05286 346.325Q210.47473 346.5594 209.3341 346.73126Q208.67786 346.825 208.41223 346.95Q208.1466 347.0594 207.99036 347.27814Q207.84973 347.4969 207.84973 347.77814Q207.84973 348.2 208.16223 348.48126Q208.49036 348.7625 209.09973 348.7625Q209.7091 348.7625 210.17786 348.4969Q210.66223 348.23126 210.88098 347.7625Q211.05286 347.40314 211.05286 346.71564L211.05286 346.325ZM218.1466 347.16876L219.17786 347.3094Q219.00598 348.3719 218.30286 348.98126Q217.59973 349.59064 216.5841 349.59064Q215.30286 349.59064 214.5216 348.7625Q213.75598 347.91876 213.75598 346.35626Q213.75598 345.35626 214.0841 344.60626Q214.42786 343.84064 215.09973 343.46564Q215.78723 343.09064 216.59973 343.09064Q217.59973 343.09064 218.24036 343.60626Q218.8966 344.10626 219.0841 345.0594L218.05286 345.21564Q217.91223 344.59064 217.53723 344.27814Q217.16223 343.95 216.63098 343.95Q215.8341 343.95 215.3341 344.52814Q214.8341 345.09064 214.8341 346.325Q214.8341 347.59064 215.31848 348.15314Q215.80286 348.71564 216.56848 348.71564Q217.19348 348.71564 217.59973 348.34064Q218.0216 347.96564 218.1466 347.16876ZM220.0841 349.45L220.0841 340.85626L221.1466 340.85626L221.1466 345.7625L223.63098 343.23126L225.00598 343.23126L222.61536 345.52814L225.24036 349.45L223.94348 349.45L221.88098 346.2625L221.1466 346.98126L221.1466 349.45L220.0841 349.45ZM230.3341 347.45L231.42786 347.575Q231.17786 348.52814 230.47473 349.0594Q229.7716 349.59064 228.69348 349.59064Q227.3341 349.59064 226.5216 348.7469Q225.72473 347.90314 225.72473 346.3875Q225.72473 344.825 226.53723 343.96564Q227.34973 343.09064 228.63098 343.09064Q229.88098 343.09064 230.66223 343.9344Q231.4591 344.77814 231.4591 346.325Q231.4591 346.41876 231.4591 346.60626L226.81848 346.60626Q226.88098 347.6375 227.3966 348.1844Q227.91223 348.71564 228.69348 348.71564Q229.2716 348.71564 229.67786 348.41876Q230.09973 348.10626 230.3341 347.45ZM226.88098 345.7469L230.34973 345.7469Q230.28723 344.95 229.9591 344.5594Q229.44348 343.95 228.6466 343.95Q227.91223 343.95 227.41223 344.4344Q226.92786 344.91876 226.88098 345.7469ZM233.0841 349.45L233.0841 343.23126L234.0216 343.23126L234.0216 344.10626Q234.7091 343.09064 236.00598 343.09064Q236.56848 343.09064 237.03723 343.29376Q237.5216 343.4969 237.75598 343.825Q237.99036 344.15314 238.0841 344.59064Q238.13098 344.8875 238.13098 345.6219L238.13098 349.45L237.0841 349.45L237.0841 345.66876Q237.0841 345.0125 236.9591 344.7Q236.8341 344.3875 236.5216 344.2Q236.2091 343.9969 235.78723 343.9969Q235.11536 343.9969 234.61536 344.4344Q234.13098 344.85626 234.13098 346.04376L234.13098 349.45L233.0841 349.45ZM244.11536 349.45L244.11536 348.66876Q243.5216 349.59064 242.38098 349.59064Q241.63098 349.59064 241.00598 349.1844Q240.38098 348.7625 240.03723 348.02814Q239.69348 347.29376 239.69348 346.34064Q239.69348 345.41876 240.00598 344.65314Q240.31848 343.8875 240.94348 343.4969Q241.56848 343.09064 242.3341 343.09064Q242.8966 343.09064 243.3341 343.325Q243.7716 343.5594 244.05286 343.9344L244.05286 340.85626L245.09973 340.85626L245.09973 349.45L244.11536 349.45ZM240.78723 346.34064Q240.78723 347.54376 241.28723 348.1375Q241.78723 348.71564 242.47473 348.71564Q243.16223 348.71564 243.6466 348.15314Q244.13098 347.59064 244.13098 346.4344Q244.13098 345.15314 243.63098 344.5594Q243.1466 343.96564 242.42786 343.96564Q241.72473 343.96564 241.25598 344.54376Q240.78723 345.10626 240.78723 346.34064Z" fill-rule="nonzero"/><path fill="#000000" d="M413.19714 349.45L413.19714 340.85626L418.99402 340.85626L418.99402 341.8719L414.33777 341.8719L414.33777 344.52814L418.36902 344.52814L418.36902 345.54376L414.33777 345.54376L414.33777 349.45L413.19714 349.45ZM419.99402 349.45L419.99402 343.23126L420.94714 343.23126L420.94714 344.16876Q421.30652 343.5125 421.6034 343.3094Q421.9159 343.09064 422.2909 343.09064Q422.82214 343.09064 423.36902 343.41876L423.00964 344.40314Q422.61902 344.16876 422.24402 344.16876Q421.88464 344.16876 421.6034 344.3875Q421.33777 344.59064 421.2284 344.96564Q421.0409 345.52814 421.0409 346.1844L421.0409 349.45L419.99402 349.45ZM423.61902 346.34064Q423.61902 344.60626 424.57214 343.77814Q425.36902 343.09064 426.52527 343.09064Q427.80652 343.09064 428.61902 343.9344Q429.44714 344.7625 429.44714 346.2469Q429.44714 347.45 429.08777 348.1375Q428.7284 348.825 428.02527 349.21564Q427.33777 349.59064 426.52527 349.59064Q425.2284 349.59064 424.4159 348.7625Q423.61902 347.91876 423.61902 346.34064ZM424.69714 346.34064Q424.69714 347.52814 425.21277 348.1219Q425.74402 348.71564 426.52527 348.71564Q427.32214 348.71564 427.83777 348.1219Q428.3534 347.52814 428.3534 346.3094Q428.3534 345.15314 427.82214 344.5594Q427.30652 343.96564 426.52527 343.96564Q425.74402 343.96564 425.21277 344.5594Q424.69714 345.1375 424.69714 346.34064ZM431.00964 349.45L431.00964 343.23126L431.94714 343.23126L431.94714 344.10626Q432.63464 343.09064 433.93152 343.09064Q434.49402 343.09064 434.96277 343.29376Q435.44714 343.4969 435.68152 343.825Q435.9159 344.15314 436.00964 344.59064Q436.05652 344.8875 436.05652 345.6219L436.05652 349.45L435.00964 349.45L435.00964 345.66876Q435.00964 345.0125 434.88464 344.7Q434.75964 344.3875 434.44714 344.2Q434.13464 343.9969 433.71277 343.9969Q433.0409 343.9969 432.5409 344.4344Q432.05652 344.85626 432.05652 346.04376L432.05652 349.45L431.00964 349.45ZM440.30652 348.5125L440.46277 349.4344Q440.00964 349.52814 439.6659 349.52814Q439.08777 349.52814 438.77527 349.35626Q438.46277 349.16876 438.32214 348.8719Q438.19714 348.575 438.19714 347.6219L438.19714 344.04376L437.43152 344.04376L437.43152 343.23126L438.19714 343.23126L438.19714 341.6844L439.24402 341.0594L439.24402 343.23126L440.30652 343.23126L440.30652 344.04376L439.24402 344.04376L439.24402 347.6844Q439.24402 348.1375 439.2909 348.2625Q439.3534 348.3875 439.4784 348.46564Q439.6034 348.54376 439.83777 348.54376Q440.02527 348.54376 440.30652 348.5125ZM445.25964 347.45L446.3534 347.575Q446.1034 348.52814 445.40027 349.0594Q444.69714 349.59064 443.61902 349.59064Q442.25964 349.59064 441.44714 348.7469Q440.65027 347.90314 440.65027 346.3875Q440.65027 344.825 441.46277 343.96564Q442.27527 343.09064 443.55652 343.09064Q444.80652 343.09064 445.58777 343.9344Q446.38464 344.77814 446.38464 346.325Q446.38464 346.41876 446.38464 346.60626L441.74402 346.60626Q441.80652 347.6375 442.32214 348.1844Q442.83777 348.71564 443.61902 348.71564Q444.19714 348.71564 444.6034 348.41876Q445.02527 348.10626 445.25964 347.45ZM441.80652 345.7469L445.27527 345.7469Q445.21277 344.95 444.88464 344.5594Q444.36902 343.95 443.57214 343.95Q442.83777 343.95 442.33777 344.4344Q441.8534 344.91876 441.80652 345.7469ZM448.00964 349.45L448.00964 343.23126L448.94714 343.23126L448.94714 344.10626Q449.63464 343.09064 450.93152 343.09064Q451.49402 343.09064 451.96277 343.29376Q452.44714 343.4969 452.68152 343.825Q452.9159 344.15314 453.00964 344.59064Q453.05652 344.8875 453.05652 345.6219L453.05652 349.45L452.00964 349.45L452.00964 345.66876Q452.00964 345.0125 451.88464 344.7Q451.75964 344.3875 451.44714 344.2Q451.13464 343.9969 450.71277 343.9969Q450.0409 343.9969 449.5409 344.4344Q449.05652 344.85626 449.05652 346.04376L449.05652 349.45L448.00964 349.45ZM459.0409 349.45L459.0409 348.66876Q458.44714 349.59064 457.30652 349.59064Q456.55652 349.59064 455.93152 349.1844Q455.30652 348.7625 454.96277 348.02814Q454.61902 347.29376 454.61902 346.34064Q454.61902 345.41876 454.93152 344.65314Q455.24402 343.8875 455.86902 343.4969Q456.49402 343.09064 457.25964 343.09064Q457.82214 343.09064 458.25964 343.325Q458.69714 343.5594 458.9784 343.9344L458.9784 340.85626L460.02527 340.85626L460.02527 349.45L459.0409 349.45ZM455.71277 346.34064Q455.71277 347.54376 456.21277 348.1375Q456.71277 348.71564 457.40027 348.71564Q458.08777 348.71564 458.57214 348.15314Q459.05652 347.59064 459.05652 346.4344Q459.05652 345.15314 458.55652 344.5594Q458.07214 343.96564 457.3534 343.96564Q456.65027 343.96564 456.18152 344.54376Q455.71277 345.10626 455.71277 346.34064Z" fill-rule="nonzero"/><path fill="#5891ad" d="M229.5 20.55C229.5 19.997715 229.94771 19.55 230.5 19.55L240.5 19.55C241.05229 19.55 241.5 19.997715 241.5 20.55L241.5 30.55C241.5 31.102285 241.05229 31.55 240.5 31.55L230.5 31.55C229.94771 31.55 229.5 31.102285 229.5 30.55Z" fill-rule="nonzero"/><path fill="#1a1a1a" d="M249.48438 29.55L252.78125 20.95625L254.0 20.95625L257.51562 29.55L256.23438 29.55L255.21875 26.940624L251.64062 26.940624L250.6875 29.55L249.48438 29.55ZM251.96875 26.01875L254.875 26.01875L253.98438 23.64375Q253.5625 22.565624 253.375 21.8625Q253.20312 22.690624 252.90625 23.503124L251.96875 26.01875ZM259.59375 28.6125L259.75 29.534374Q259.29688 29.628124 258.95312 29.628124Q258.375 29.628124 258.0625 29.45625Q257.75 29.26875 257.60938 28.971874Q257.48438 28.675 257.48438 27.721874L257.48438 24.14375L256.71875 24.14375L256.71875 23.33125L257.48438 23.33125L257.48438 21.784374L258.53125 21.159374L258.53125 23.33125L259.59375 23.33125L259.59375 24.14375L258.53125 24.14375L258.53125 27.784374Q258.53125 28.2375 258.57812 28.3625Q258.64062 28.4875 258.76562 28.565624Q258.89062 28.64375 259.125 28.64375Q259.3125 28.64375 259.59375 28.6125ZM262.59375 28.6125L262.75 29.534374Q262.29688 29.628124 261.95312 29.628124Q261.375 29.628124 261.0625 29.45625Q260.75 29.26875 260.60938 28.971874Q260.48438 28.675 260.48438 27.721874L260.48438 24.14375L259.71875 24.14375L259.71875 23.33125L260.48438 23.33125L260.48438 21.784374L261.53125 21.159374L261.53125 23.33125L262.59375 23.33125L262.59375 24.14375L261.53125 24.14375L261.53125 27.784374Q261.53125 28.2375 261.57812 28.3625Q261.64062 28.4875 261.76562 28.565624Q261.89062 28.64375 262.125 28.64375Q262.3125 28.64375 262.59375 28.6125ZM267.54688 27.55L268.64062 27.675Q268.39062 28.628124 267.6875 29.159374Q266.98438 29.690624 265.90625 29.690624Q264.54688 29.690624 263.73438 28.846874Q262.9375 28.003124 262.9375 26.4875Q262.9375 24.925 263.75 24.065624Q264.5625 23.190624 265.84375 23.190624Q267.09375 23.190624 267.875 24.034374Q268.67188 24.878124 268.67188 26.425Q268.67188 26.51875 268.67188 26.70625L264.03125 26.70625Q264.09375 27.7375 264.60938 28.284374Q265.125 28.815624 265.90625 28.815624Q266.48438 28.815624 266.89062 28.51875Q267.3125 28.20625 267.54688 27.55ZM264.09375 25.846874L267.5625 25.846874Q267.5 25.05 267.17188 24.659374Q266.65625 24.05 265.85938 24.05Q265.125 24.05 264.625 24.534374Q264.14062 25.01875 264.09375 25.846874ZM270.29688 29.55L270.29688 23.33125L271.23438 23.33125L271.23438 24.20625Q271.92188 23.190624 273.21875 23.190624Q273.78125 23.190624 274.25 23.39375Q274.73438 23.596874 274.96875 23.925Q275.20312 24.253124 275.29688 24.690624Q275.34375 24.9875 275.34375 25.721874L275.34375 29.55L274.29688 29.55L274.29688 25.76875Q274.29688 25.1125 274.17188 24.8Q274.04688 24.4875 273.73438 24.3Q273.42188 24.096874 273.0 24.096874Q272.32812 24.096874 271.82812 24.534374Q271.34375 24.95625 271.34375 26.14375L271.34375 29.55L270.29688 29.55ZM281.32812 29.55L281.32812 28.76875Q280.73438 29.690624 279.59375 29.690624Q278.84375 29.690624 278.21875 29.284374Q277.59375 28.8625 277.25 28.128124Q276.90625 27.39375 276.90625 26.440624Q276.90625 25.51875 277.21875 24.753124Q277.53125 23.9875 278.15625 23.596874Q278.78125 23.190624 279.54688 23.190624Q280.10938 23.190624 280.54688 23.425Q280.98438 23.659374 281.26562 24.034374L281.26562 20.95625L282.3125 20.95625L282.3125 29.55L281.32812 29.55ZM278.0 26.440624Q278.0 27.64375 278.5 28.2375Q279.0 28.815624 279.6875 28.815624Q280.375 28.815624 280.85938 28.253124Q281.34375 27.690624 281.34375 26.534374Q281.34375 25.253124 280.84375 24.659374Q280.35938 24.065624 279.64062 24.065624Q278.9375 24.065624 278.46875 24.64375Q278.0 25.20625 278.0 26.440624ZM288.375 29.55L288.375 28.628124Q287.64062 29.690624 286.39062 29.690624Q285.84375 29.690624 285.35938 29.4875Q284.89062 29.26875 284.65625 28.95625Q284.42188 28.628124 284.32812 28.159374Q284.26562 27.8625 284.26562 27.175L284.26562 23.33125L285.32812 23.33125L285.32812 26.784374Q285.32812 27.596874 285.39062 27.89375Q285.48438 28.3 285.79688 28.55Q286.125 28.784374 286.60938 28.784374Q287.07812 28.784374 287.48438 28.55Q287.90625 28.3 288.07812 27.878124Q288.26562 27.45625 288.26562 26.659374L288.26562 23.33125L289.3125 23.33125L289.3125 29.55L288.375 29.55Z" fill-rule="nonzero"/><path fill="#004561" d="M306.5 20.55C306.5 19.997715 306.94772 19.55 307.5 19.55L317.5 19.55C318.05228 19.55 318.5 19.997715 318.5 20.55L318.5 30.55C318.5 31.102285 318.05228 31.55 317.5 31.55L307.5 31.55C306.94772 31.55 306.5 31.102285 306.5 30.55Z" fill-rule="nonzero"/><path fill="#1a1a1a" d="M327.45312 29.55L327.45312 20.95625L333.65625 20.95625L333.65625 21.971874L328.59375 21.971874L328.59375 24.596874L333.34375 24.596874L333.34375 25.6125L328.59375 25.6125L328.59375 28.534374L333.85938 28.534374L333.85938 29.55L327.45312 29.55ZM335.54688 29.55L335.54688 24.14375L334.60938 24.14375L334.60938 23.33125L335.54688 23.33125L335.54688 22.659374Q335.54688 22.034374 335.65625 21.7375Q335.8125 21.315624 336.1875 21.065624Q336.57812 20.815624 337.26562 20.815624Q337.71875 20.815624 338.25 20.925L338.09375 21.83125Q337.76562 21.784374 337.46875 21.784374Q336.98438 21.784374 336.78125 21.9875Q336.59375 22.190624 336.59375 22.753124L336.59375 23.33125L337.8125 23.33125L337.8125 24.14375L336.59375 24.14375L336.59375 29.55L335.54688 29.55ZM338.54688 29.55L338.54688 24.14375L337.60938 24.14375L337.60938 23.33125L338.54688 23.33125L338.54688 22.659374Q338.54688 22.034374 338.65625 21.7375Q338.8125 21.315624 339.1875 21.065624Q339.57812 20.815624 340.26562 20.815624Q340.71875 20.815624 341.25 20.925L341.09375 21.83125Q340.76562 21.784374 340.46875 21.784374Q339.98438 21.784374 339.78125 21.9875Q339.59375 22.190624 339.59375 22.753124L339.59375 23.33125L340.8125 23.33125L340.8125 24.14375L339.59375 24.14375L339.59375 29.55L338.54688 29.55ZM345.54688 27.55L346.64062 27.675Q346.39062 28.628124 345.6875 29.159374Q344.98438 29.690624 343.90625 29.690624Q342.54688 29.690624 341.73438 28.846874Q340.9375 28.003124 340.9375 26.4875Q340.9375 24.925 341.75 24.065624Q342.5625 23.190624 343.84375 23.190624Q345.09375 23.190624 345.875 24.034374Q346.67188 24.878124 346.67188 26.425Q346.67188 26.51875 346.67188 26.70625L342.03125 26.70625Q342.09375 27.7375 342.60938 28.284374Q343.125 28.815624 343.90625 28.815624Q344.48438 28.815624 344.89062 28.51875Q345.3125 28.20625 345.54688 27.55ZM342.09375 25.846874L345.5625 25.846874Q345.5 25.05 345.17188 24.659374Q344.65625 24.05 343.85938 24.05Q343.125 24.05 342.625 24.534374Q342.14062 25.01875 342.09375 25.846874ZM352.35938 27.26875L353.39062 27.409374Q353.21875 28.471874 352.51562 29.08125Q351.8125 29.690624 350.79688 29.690624Q349.51562 29.690624 348.73438 28.8625Q347.96875 28.01875 347.96875 26.45625Q347.96875 25.45625 348.29688 24.70625Q348.64062 23.940624 349.3125 23.565624Q350.0 23.190624 350.8125 23.190624Q351.8125 23.190624 352.45312 23.70625Q353.10938 24.20625 353.29688 25.159374L352.26562 25.315624Q352.125 24.690624 351.75 24.378124Q351.375 24.05 350.84375 24.05Q350.04688 24.05 349.54688 24.628124Q349.04688 25.190624 349.04688 26.425Q349.04688 27.690624 349.53125 28.253124Q350.01562 28.815624 350.78125 28.815624Q351.40625 28.815624 351.8125 28.440624Q352.23438 28.065624 352.35938 27.26875ZM356.59375 28.6125L356.75 29.534374Q356.29688 29.628124 355.95312 29.628124Q355.375 29.628124 355.0625 29.45625Q354.75 29.26875 354.60938 28.971874Q354.48438 28.675 354.48438 27.721874L354.48438 24.14375L353.71875 24.14375L353.71875 23.33125L354.48438 23.33125L354.48438 21.784374L355.53125 21.159374L355.53125 23.33125L356.59375 23.33125L356.59375 24.14375L355.53125 24.14375L355.53125 27.784374Q355.53125 28.2375 355.57812 28.3625Q355.64062 28.4875 355.76562 28.565624Q355.89062 28.64375 356.125 28.64375Q356.3125 28.64375 356.59375 28.6125ZM361.375 29.55L361.375 28.628124Q360.64062 29.690624 359.39062 29.690624Q358.84375 29.690624 358.35938 29.4875Q357.89062 29.26875 357.65625 28.95625Q357.42188 28.628124 357.32812 28.159374Q357.26562 27.8625 357.26562 27.175L357.26562 23.33125L358.32812 23.33125L358.32812 26.784374Q358.32812 27.596874 358.39062 27.89375Q358.48438 28.3 358.79688 28.55Q359.125 28.784374 359.60938 28.784374Q360.07812 28.784374 360.48438 28.55Q360.90625 28.3 361.07812 27.878124Q361.26562 27.45625 361.26562 26.659374L361.26562 23.33125L362.3125 23.33125L362.3125 29.55L361.375 29.55ZM368.54688 27.55L369.64062 27.675Q369.39062 28.628124 368.6875 29.159374Q367.98438 29.690624 366.90625 29.690624Q365.54688 29.690624 364.73438 28.846874Q363.9375 28.003124 363.9375 26.4875Q363.9375 24.925 364.75 24.065624Q365.5625 23.190624 366.84375 23.190624Q368.09375 23.190624 368.875 24.034374Q369.67188 24.878124 369.67188 26.425Q369.67188 26.51875 369.67188 26.70625L365.03125 26.70625Q365.09375 27.7375 365.60938 28.284374Q366.125 28.815624 366.90625 28.815624Q367.48438 28.815624 367.89062 28.51875Q368.3125 28.20625 368.54688 27.55ZM365.09375 25.846874L368.5625 25.846874Q368.5 25.05 368.17188 24.659374Q367.65625 24.05 366.85938 24.05Q366.125 24.05 365.625 24.534374Q365.14062 25.01875 365.09375 25.846874ZM366.21875 22.55L367.0 20.909374L368.39062 20.909374L367.09375 22.55L366.21875 22.55Z" fill-rule="nonzero"/></svg>